<?xml version="1.0" encoding="UTF-8"?>
<svg id="Layer_1" data-name="Layer 1" xmlns="http://www.w3.org/2000/svg" width="50.031mm" height="49.995mm" viewBox="0 0 141.82 141.718">
  <path fill="#2869ef" d="M70.907,1.29C32.13,1.29.695,32.725.695,71.502s31.435,70.211,70.211,70.211,70.211-31.435,70.211-70.211S109.683,1.29,70.907,1.29ZM70.907,129.584c-32.027,0-58.083-26.056-58.083-58.082S38.88,13.419,70.907,13.419s58.082,26.056,58.082,58.083-26.056,58.082-58.082,58.082Z"/>
  <g fill="#0b3aa0">
    <path d="M70.907,142.613C31.696,142.613-.205,110.713-.205,71.502S31.696.391,70.907.391s71.111,31.9,71.111,71.111-31.9,71.112-71.111,71.112ZM70.907,2.19C32.689,2.19,1.594,33.284,1.594,71.502s31.094,69.312,69.313,69.312,69.311-31.093,69.311-69.312S109.126,2.19,70.907,2.19ZM70.907,130.484c-32.524,0-58.982-26.459-58.982-58.982S38.384,12.519,70.907,12.519s58.982,26.459,58.982,58.983-26.459,58.982-58.982,58.982ZM70.907,14.319c-31.53,0-57.183,25.653-57.183,57.184s25.653,57.182,57.183,57.182,57.183-25.652,57.183-57.182S102.437,14.319,70.907,14.319Z"/>
    <path d="M70.907,141.713c-27.861.331-54.595-17.448-65.247-43.186C-14.083,51.949,20.264-.014,70.907,0c50.65-.02,85,51.948,65.251,98.53-10.655,25.735-37.389,43.517-65.251,43.184h0ZM70.907,141.713c27.761.293,54.398-17.646,64.497-43.497C153.88,52.653,120.037,2.51,70.906,2.581,21.768,2.504-12.077,52.651,6.405,98.219c10.104,25.848,36.738,43.79,64.501,43.494h0Z"/>
    <path d="M142.018,71.502c0,45.08-27.806,82.833-71.112,82.608C49.543,153.992-.205,141.713-.205,71.502c0,0,1.589,0,1.589,0,.164,27.436,17.665,53.569,43.138,63.698,25.148,10.516,56.019,4.571,75.22-14.862,12.862-12.736,20.471-30.608,20.687-48.836,0,0,1.589,0,1.589,0Z" opacity=".3"/>
  </g>
  <path fill="#76adff" d="M131.438,98.969c15.251-41.415-11.498-86.604-55.527-91.344-15.022-1.849-30.309,1.918-43.379,9.625,0,0-.199-.281-.199-.281,14.809-10.712,34.024-14.579,51.91-11.052,25.372,5.136,46.208,25.191,51.801,50.542,3.284,14.159,1.817,29.429-4.293,42.653,0,0-.313-.143-.313-.143h0Z" />
</svg>