<?xml version="1.0" encoding="UTF-8"?>
<svg id="Layer_1" xmlns="http://www.w3.org/2000/svg" version="1.1" viewBox="0 0 613.764 514.434">
  <!-- Generator: Adobe Illustrator 30.4.0, SVG Export Plug-In . SVG Version: 2.1.4 Build 226)  -->
  <g>
    <rect x="49.665" y="-49.665" width="514.434" height="613.764" rx="87.771" ry="87.771" transform="translate(564.099 -49.665) rotate(90)" style="fill: #2869ef; stroke: #0b3aa0; stroke-miterlimit: 10; stroke-width: 2.5px;"/>
    <path d="M609.313,142.504c-.949-15.447-1.757-35.214-2.228-50.754-.082-3.697-.298-8.721-.764-12.389-.898-6.707-2.608-13.427-5.073-19.698-9.833-25.266-32.728-44.925-59.325-50.405-10.812-2.486-22.032-1.711-33.049-2.163-16.337-.354-34.348-.93-50.754-1.747-4.152-.154-12.754-.621-16.918-.896-.903-1.125,67.747-.128,67.672-.5,0,0,16.918-.024,16.918-.024,17.006-.098,33.975,5.142,47.93,14.875,21.045,14.497,34.779,38.924,35.955,64.474.227,5.724.053,19.51.086,25.39,0,0-.05,33.836-.05,33.836,0,0-.4,0-.4,0h0Z" style="fill: #76adff;"/>
    <rect x="63.838" y="-35.492" width="486.088" height="585.418" rx="73.598" ry="73.598" transform="translate(564.1 -49.665) rotate(90)" style="fill: #1c5bc9; stroke: #0b3aa0; stroke-miterlimit: 10; stroke-width: 2.5px;"/>
  </g>
  <g>
    <g>
      <rect x="157.691" y="379.604" width="117.119" height="83.827" style="fill: #bebec0;"/>
      <polygon points="274.81 379.604 157.691 379.604 195.835 361.57 302.343 361.57 274.81 379.604" style="fill: #e5e5e4;"/>
      <rect x="274.81" y="364.838" width="173.916" height="112.503" style="fill: #cecece;"/>
      <polygon points="448.726 364.838 411.713 342.578 311.823 342.578 274.81 364.838 448.726 364.838" style="fill: #efefef;"/>
      <path d="M232.995,444.896h-33.488l16.491-20.408c1.011-1.265,1.885-2.37,2.622-3.317.737-.948,1.348-1.833,1.833-2.654.484-.821.842-1.621,1.074-2.4.231-.779.348-1.611.348-2.496,0-1.601-.537-2.938-1.611-4.013s-2.455-1.61-4.139-1.61-3.064.536-4.139,1.61-1.611,2.412-1.611,4.013v.947h-10.868v-.947c0-2.148.42-4.17,1.264-6.065.842-1.896,2.011-3.539,3.507-4.929,1.495-1.391,3.254-2.485,5.276-3.286,2.022-.799,4.212-1.2,6.571-1.2s4.549.39,6.571,1.169c2.022.78,3.78,1.854,5.276,3.223,1.495,1.369,2.664,2.98,3.507,4.833.842,1.854,1.264,3.834,1.264,5.939,0,1.602-.201,3.064-.601,4.392-.4,1.327-1.001,2.633-1.801,3.918-.8,1.285-1.769,2.644-2.906,4.075-1.137,1.433-2.464,3.055-3.98,4.865l-3.917,4.865h13.458v9.478Z" style="fill: #231f20;"/>
      <path d="M347.636,399.712v-15.827h28.264v74.41h-17.472v-58.583h-10.792Z" style="fill: #231f20;"/>
    </g>
    <circle cx="239.442" cy="310.493" r="9.193" style="fill: #f9ced7;"/>
    <circle cx="364.059" cy="280.175" r="9.193" style="fill: #f9ced7;"/>
  </g>
  <rect x="69.171" y="36.387" width="475.423" height="163.341" style="fill: #1c5bc9;"/>
</svg>